<svg width="1017" height="1401" viewBox="0 0 1017 1401" fill="none" xmlns="http://www.w3.org/2000/svg">
<path d="M499.965 1400.71C404.605 1400.71 319.59 1383.17 244.922 1348.08C170.703 1313 111.778 1264.64 68.1463 1203.02C24.5147 1141.39 1.79925 1070.77 0 991.158H283.381C286.529 1044.69 309.02 1088.09 350.852 1121.38C392.685 1154.66 442.389 1171.31 499.965 1171.31C545.845 1171.31 586.328 1161.19 621.413 1140.94C656.948 1120.25 684.612 1091.69 704.403 1055.26C724.645 1018.37 734.766 976.089 734.766 928.409C734.766 879.83 724.42 837.098 703.729 800.213C683.487 763.329 655.374 734.541 619.389 713.849C583.404 693.158 542.247 682.588 495.916 682.138C455.433 682.138 416.075 690.459 377.841 707.102C340.057 723.745 310.594 746.461 289.453 775.249L29.6875 728.693L95.135 0H939.879V238.849H336.009L300.249 584.979H308.345C332.635 550.793 369.295 522.455 418.324 499.964C467.353 477.474 522.23 466.229 582.955 466.229C666.17 466.229 740.388 485.795 805.611 524.929C870.833 564.062 922.337 617.815 960.121 686.186C997.905 754.108 1016.57 832.375 1016.12 920.987C1016.57 1014.1 994.981 1096.86 951.349 1169.28C908.168 1241.25 847.668 1297.93 769.851 1339.31C692.483 1380.24 602.521 1400.71 499.965 1400.71Z" fill="#BAD23B"/>
</svg>
