<svg width="1069" height="1420" viewBox="0 0 1069 1420" fill="none" xmlns="http://www.w3.org/2000/svg">
<path d="M516.165 0.00725545C587.235 0.00725545 655.606 11.9272 721.278 35.7671C787.4 59.6072 846.326 97.6162 898.054 149.794C950.232 201.972 991.39 271.243 1021.53 357.607C1052.11 443.52 1067.63 549.001 1068.08 674.048C1068.08 791.449 1054.81 896.255 1028.27 988.466C1002.18 1080.23 964.626 1158.27 915.596 1222.59C866.567 1286.92 807.417 1335.94 738.146 1369.68C668.875 1402.97 591.508 1419.61 506.044 1419.61C413.833 1419.61 332.417 1401.84 261.797 1366.31C191.176 1330.32 134.275 1281.52 91.0936 1219.89C48.3616 1157.82 22.4975 1088.1 13.5013 1010.73H301.605C312.85 1061.11 336.465 1100.24 372.45 1128.13C408.435 1155.57 452.966 1169.29 506.044 1169.29C596.006 1169.29 664.377 1130.16 711.158 1051.89C757.938 973.173 781.553 865.443 782.003 728.7H772.557C751.865 769.183 723.977 804.044 688.892 833.281C653.807 862.069 613.549 884.335 568.118 900.078C523.137 915.822 475.232 923.693 424.403 923.693C342.988 923.693 270.343 904.576 206.47 866.343C142.597 828.109 92.2181 775.481 55.3337 708.459C18.4492 641.437 0.00695582 564.969 0.00695582 479.056C-0.442854 386.395 20.9232 303.854 64.105 231.435C107.287 159.015 167.561 102.339 244.929 61.4064C322.746 20.0238 413.158 -0.442569 516.165 0.00725545ZM518.189 229.411C472.758 229.411 432.275 240.206 396.74 261.797C361.655 283.388 333.766 312.401 313.075 348.835C292.834 385.27 282.938 425.978 283.388 470.959C283.388 516.39 293.283 557.323 313.075 593.757C333.317 629.742 360.755 658.53 395.391 680.121C430.476 701.262 470.509 711.833 515.49 711.833C549.226 711.833 580.488 705.535 609.275 692.941C638.063 680.346 663.028 663.028 684.169 640.987C705.76 618.497 722.628 592.633 734.773 563.395C746.917 534.157 752.99 503.12 752.99 470.284C752.54 426.653 742.194 386.619 721.953 350.185C701.712 313.75 673.823 284.512 638.288 262.472C602.753 240.431 562.72 229.411 518.189 229.411Z" fill="#BAD23B"/>
</svg>
