<svg width="200" height="40" viewBox="0 0 200 40" fill="none" xmlns="http://www.w3.org/2000/svg">
<g clip-path="url(#clip0_318_11727)">
<path d="M15.1555 0.539062H0.135317C0.135317 0.539062 0 0.673736 0 0.808415V38.383C0 38.5177 0.135317 38.5177 0.135317 38.5177H15.1555C25.7102 38.5177 34.2352 30.0331 34.2352 19.5284C34.2352 9.02363 25.7102 0.539062 15.1555 0.539062ZM14.6142 29.6291H9.4722V9.42767H14.7495C20.2975 9.42767 24.8983 14.0067 24.8983 19.5284C24.763 25.0501 20.2975 29.6291 14.6142 29.6291Z" fill="#231F20"/>
<path d="M57.9152 0.132812C47.2253 0.132812 38.4297 8.88675 38.4297 19.5261C38.4297 30.1655 47.2253 38.9195 57.9152 38.9195C68.6053 38.9195 77.4009 30.1655 77.4009 19.5261C77.4009 8.88675 68.6053 0.132812 57.9152 0.132812ZM57.9152 30.0308C52.2319 30.0308 47.9019 25.4519 47.9019 19.5261C47.9019 13.6004 52.3675 9.02144 57.9152 9.02144C63.5985 9.02144 67.9288 13.6004 67.9288 19.5261C67.9288 25.4519 63.4634 30.0308 57.9152 30.0308Z" fill="#231F20"/>
<path d="M180.513 0.132812C169.823 0.132812 161.027 8.88675 161.027 19.5261C161.027 30.1655 169.823 38.9195 180.513 38.9195C191.203 38.9195 199.999 30.1655 199.999 19.5261C200.134 8.88675 191.339 0.132812 180.513 0.132812ZM180.513 30.0308C174.83 30.0308 170.5 25.4519 170.5 19.5261C170.5 13.6004 174.965 9.02144 180.513 9.02144C186.196 9.02144 190.527 13.6004 190.527 19.5261C190.662 25.4519 186.196 30.0308 180.513 30.0308Z" fill="#231F20"/>
<path d="M141.542 9.02329C141.677 9.02329 141.813 9.02329 141.948 9.02329C145.737 9.15794 147.902 11.3128 149.255 13.0636C149.526 13.4676 149.797 13.8716 150.067 14.2757C150.067 14.4103 150.202 14.4103 150.338 14.2757L158.051 10.1007C158.186 10.1007 158.186 9.966 158.051 9.83136C153.721 2.96287 148.037 0 141.542 0C130.987 0 122.057 8.48457 122.057 19.3933C122.057 30.3021 130.987 38.7867 141.542 38.7867C148.037 38.7867 153.721 35.8238 158.051 28.9553C158.051 28.8206 158.051 28.8207 158.051 28.686L150.338 24.511C150.202 24.511 150.202 24.511 150.067 24.511C149.797 24.915 149.526 25.3191 149.255 25.7231C147.902 27.6086 145.737 29.6287 141.948 29.7634C141.813 29.7634 141.677 29.7634 141.542 29.7634C135.994 29.7634 131.529 25.0497 131.529 19.2586C131.529 13.7369 135.994 9.02329 141.542 9.02329Z" fill="#231F20"/>
<path d="M116.779 16.5632C117.049 7.40531 109.066 0.132812 99.0522 0.132812C90.798 0.132812 82.8145 6.46256 82.8145 15.2165V38.2461C82.8145 38.3808 82.9496 38.3808 82.9496 38.3808H92.0159C92.151 38.3808 92.151 38.2461 92.151 38.2461V16.5632C92.151 12.523 95.399 9.15608 99.4585 9.02144C103.653 8.88675 107.171 11.8496 107.171 16.0246C107.171 19.3915 104.33 23.1624 98.5113 23.297C98.3757 23.297 98.2406 23.4317 98.3757 23.5664L107.442 38.3808L107.577 38.5155H119.214C119.35 38.5155 119.485 38.3808 119.35 38.2461L111.502 26.5293C114.885 23.9705 116.644 20.3342 116.779 16.5632Z" fill="#231F20"/>
</g>
<defs>
<clipPath id="clip0_318_11727">
<rect width="200" height="39.0625" fill="white"/>
</clipPath>
</defs>
</svg>
